#format: frame checksums
#version: 2
#hash: MD5
#tb 0: 1/25
#media_type 0: video
#codec_id 0: rawvideo
#dimensions 0: 640x480
#sar 0: 1/1
#stream#, dts,        pts, duration,     size, hash
0,          0,          0,        1,   460800, d65fcc79c7eb9ebd9d88dca3ebb15bf4
0,          1,          1,        1,   460800, 6c86b8c7e8eae3d63b21342f233fb44e
0,          2,          2,        1,   460800, 7fea65fd8ee4d3fcec722f721d05ef45
0,          3,          3,        1,   460800, 2a1d943211f8c1995cc250586f105991
0,          4,          4,        1,   460800, 0430fa1da6a968c0936fc60a425c3b9f
0,          5,          5,        1,   460800, 1593684b29c0f394176c9fce83ebe4a3
0,          6,          6,        1,   460800, ff8c25a20ced839a1ce33ef25d04f342
0,          7,          7,        1,   460800, 08869a31b677080f3fb1b12e3178c1f8
0,          8,          8,        1,   460800, 7e8d4c417698e434508663dfd851e95d
0,          9,          9,        1,   460800, 97488eafaa5db813bc9fbb13a4204240
0,         10,         10,        1,   460800, aac8d92f678f077b560f24a74427ef33
0,         11,         11,        1,   460800, dbb953e70f356c528e232dd90b21af99
0,         12,         12,        1,   460800, 2f7b6c9f006ca733c159aadb78958621
0,         13,         13,        1,   460800, 938142d358a298df924da648ff9542e2
0,         14,         14,        1,   460800, 93cae8797e91f0ecb94782fd614ba477
0,         15,         15,        1,   460800, 4644a98dbd46865c6c4e1ebe168b5095
0,         16,         16,        1,   460800, cc932f281bf90456c508f58fda085658
0,         17,         17,        1,   460800, 9280ef543c11446d7005a098d19b74a3
0,         18,         18,        1,   460800, f5c91502bd600e1cfcd9ff7a5e683ce4
0,         19,         19,        1,   460800, 4eda3b1d48ca986eeb14c90af947b6af
0,         20,         20,        1,   460800, 84e8398c333e76412bd310c207e131d3
0,         21,         21,        1,   460800, 7abe283b322cc4c9aaeb56e4b2e03597
0,         22,         22,        1,   460800, b4daa2055782c6f3769bf71cb1534124
0,         23,         23,        1,   460800, 3deb3e2f41ef4549da3b0d89031eaa42
0,         24,         24,        1,   460800, 73b9efcd2714b3cd65b1d8aee953cd38
0,         25,         25,        1,   460800, 493ee5aab3a0ca22887b2b673d871efd
0,         26,         26,        1,   460800, 5fe537734707bbc050290df8c0095d0f
0,         27,         27,        1,   460800, ca337619639144e0aea0fe226e9dad63
0,         28,         28,        1,   460800, 8fa2e0ff609d1593d34722058e56b19a
0,         29,         29,        1,   460800, be0950c431591485ed4de678f8f17187
0,         30,         30,        1,   460800, 0ef4b6a8d2e3d455d697deaf730cf402
0,         31,         31,        1,   460800, f74302190c8e47120b9597073525b08e
0,         32,         32,        1,   460800, 129fb2cc916aa16f8fee053ae89c31b3
0,         33,         33,        1,   460800, 0186eacb73263bb0ae02c20f827dd650
0,         34,         34,        1,   460800, f3c0245c28ded8d497665c87e66531de
0,         35,         35,        1,   460800, e550cae2b446a5460a7201ef20ad74fd
0,         36,         36,        1,   460800, 5fcf10d7b438dc4e29f7ec44f027170a
0,         37,         37,        1,   460800, 65be5db585be02d64238a43eabc40abe
0,         38,         38,        1,   460800, 93a9d9a64726138405db6d8865a6b71b
0,         39,         39,        1,   460800, 5af0a0d96f311fc96733c6e3e6860347
0,         40,         40,        1,   460800, 8b6de9fe7f44a87eac573dedf8c6bbcb
0,         41,         41,        1,   460800, f8a7bb899b2643754f63317fa949c5d2
0,         42,         42,        1,   460800, f9011d02dd844a80e477af7c497a1e56
0,         43,         43,        1,   460800, ddae63ad8f604d5ed3d5a558fd84c6bb
0,         44,         44,        1,   460800, e815946decb3bee3f52fe4476d0f38ea
0,         45,         45,        1,   460800, c3b3e46f4f851ad16d4ce9782c3fdcca
0,         46,         46,        1,   460800, 9adcaa5ca967282f588ae184a64f15d8
0,         47,         47,        1,   460800, 29a243a8e57c2b923c514d68c18645bf
0,         48,         48,        1,   460800, 7a1538cfa6fad69f93bf9977ce03b2df
0,         49,         49,        1,   460800, 91e042b5a26fb0a578fe8abad6a881c8
0,         50,         50,        1,   460800, 4892c52ebd173c1c1f651ab9043bc0ae
0,         51,         51,        1,   460800, 411e8f1d0603f1bf9a6e0e2fbf139b40
0,         52,         52,        1,   460800, a8982db63153a60d32d22e3ec52d055f
0,         53,         53,        1,   460800, eccd934107810c2360850b125c60aa20
0,         54,         54,        1,   460800, 4ff4a75ad54f3fca7fe302fd42d8b635
0,         55,         55,        1,   460800, 096f9c7f9605bd03a7d1a2f3707ab0cd
0,         56,         56,        1,   460800, 8b71840efcaa91b0e999b656458259e4
0,         57,         57,        1,   460800, a316e47df5e3b815890bbe8ad28e58f7
0,         58,         58,        1,   460800, c05734743b26b5938bbe491c5e1207bb
0,         59,         59,        1,   460800, f513bfb6d22eb6dee298bd60289d49ef
0,         60,         60,        1,   460800, 1242d643e8c4d4b758dd2e4ea934ddb1
0,         61,         61,        1,   460800, d390abd9c75cce2847ea11929d765a97
0,         62,         62,        1,   460800, 07c172820c57f4653db9d980f8003f05
0,         63,         63,        1,   460800, f5121dc906185e1dad2b4d3ef036ffa2
0,         64,         64,        1,   460800, ab9d1fcf6a5aad68d0f7f68f956a8905
0,         65,         65,        1,   460800, a30b4e2d59c411cb8ed8b420d0e9980f
0,         66,         66,        1,   460800, a239203d87b8f6dae0b04aedb5509303
0,         67,         67,        1,   460800, 08fe1416f25273f66354a8f4365886a9
0,         68,         68,        1,   460800, 62a4f52f688484a633219bf2431a05a1
0,         69,         69,        1,   460800, 4f56bbbdce274dca30ea0a6af1ad9fb5
0,         70,         70,        1,   460800, 7cb37bb372fac6a6ed10066724bd55dc
0,         71,         71,        1,   460800, 74452850aa88ea0072e84657503d9044
0,         72,         72,        1,   460800, e5a41bc0f20298b7ad04d5920cbd0ef9
0,         73,         73,        1,   460800, 6bf692b510e12a1478ad701cd6b92f5f
0,         74,         74,        1,   460800, 70a990aa4e4e1cd09eb145fc5830182d
0,         75,         75,        1,   460800, d1766902072052fb820a485c382c5c38
0,         76,         76,        1,   460800, 36959297268283e0134118a7552d5432
0,         77,         77,        1,   460800, 907bec0f379ea9eb60a3122b8c253eeb
0,         78,         78,        1,   460800, 43f1068a583a9645245a0d60dc647b00
0,         79,         79,        1,   460800, ee55d4619e4b10d3e931eca18a4d4586
0,         80,         80,        1,   460800, ba6a2efc84360d701944df2236292d74
0,         81,         81,        1,   460800, b496e4674b5eb6a60e16ec4069ffa1c2
0,         82,         82,        1,   460800, 5ae928c45606d4665d82da353dd81a81
0,         83,         83,        1,   460800, 3c84403932cf66e616373f0d25c9f4a8
0,         84,         84,        1,   460800, e0b63b21cdfd96c44adeb2617ecd9022
0,         85,         85,        1,   460800, 57e0299f7435c8bd610cba860b128001
0,         86,         86,        1,   460800, a543a8694155a488e7cc9066a70739e5
0,         87,         87,        1,   460800, 953d38d3b44e1564b037f83171f7f594
0,         88,         88,        1,   460800, 3725640ec5fdaec8acc4da7a224b8137
0,         89,         89,        1,   460800, bd1086accdf2eb9f3e8cfb1e0f09ff60
0,         90,         90,        1,   460800, b1fc08e447396a2db10e1be8c6cda6a4
0,         91,         91,        1,   460800, 76849824f2b9aafc850dcb9994058afb
0,         92,         92,        1,   460800, 90523973962279d4eb5ce1261f631ff0
0,         93,         93,        1,   460800, d5c69da4109d4d41d9b7940dbed8a21a
0,         94,         94,        1,   460800, 978d8cbfe9413418d295c485225d8ac8
0,         95,         95,        1,   460800, a917cd3dc6dd127523e972424f1f1544
0,         96,         96,        1,   460800, 1a4889b8c72066ea90c2a66ff80cd118
0,         97,         97,        1,   460800, 30f1792bad369f51bd90e20b8d084779
0,         98,         98,        1,   460800, 14d67997177544d76d9ec69abe992bf5
0,         99,         99,        1,   460800, 39ba73b642d95ab9d7d00ca9ecb276af
0,        100,        100,        1,   460800, 7614eed47fa4ab378fa95a6fa09048dd
0,        101,        101,        1,   460800, efbce233c30851726551446f2cf007d4
0,        102,        102,        1,   460800, 4cdf067f4e0dec1d5468d73bc2fb6971
0,        103,        103,        1,   460800, b6d5a482c97622ca0ac526e46864586c
0,        104,        104,        1,   460800, 860c1d3db436f96a29f83b25cad8a292
0,        105,        105,        1,   460800, 3e1adea399679f5ea40539c49d63f475
0,        106,        106,        1,   460800, 0422ac63df21baada7df73d9efb2b4a8
0,        107,        107,        1,   460800, f372ebfd2acea1ac3d06a898bdf5ed28
0,        108,        108,        1,   460800, 95c1bdc33fa3a9bf6fc1cf616eae4989
0,        109,        109,        1,   460800, a8b67585ab13e9476a2075afb347e551
0,        110,        110,        1,   460800, 6d7ff7585b172c18e9095bbf304701aa
0,        111,        111,        1,   460800, ca17a315650ecafcbff854414e832daf
0,        112,        112,        1,   460800, 0e58c300f666e2f608dde25cb4e7c6e4
0,        113,        113,        1,   460800, 7e05f8ab2cf1fb99d11edb7dce8adb61
0,        114,        114,        1,   460800, 5ec17032a3d98c18055eedc994d5b22c
0,        115,        115,        1,   460800, 3be2f9e9bdf62279b1d1c55af298b8bf
0,        116,        116,        1,   460800, d791c1335df7a9aac01aeb893e16ebeb
0,        117,        117,        1,   460800, b1235bfe00b13ac9d4abeb42be518de6
0,        118,        118,        1,   460800, 770b5fc1acd72c526f7b751569f9ebdd
0,        119,        119,        1,   460800, 76988407c42beb84704e5cc8175ae3d1
0,        120,        120,        1,   460800, 9b38739847b080d019403ad0d62505f1
0,        121,        121,        1,   460800, 06d881fe05e16b528a056001f6162b18
0,        122,        122,        1,   460800, 2f920d88d0ac956bb7c82c2ee1999b5d
0,        123,        123,        1,   460800, 3bda811ee889672ef9bf3b329c0d8702
0,        124,        124,        1,   460800, 793ca50f817442d000c228bae1d34f01
0,        125,        125,        1,   460800, 6ac43125d47508fbee2a112962d68f7f
0,        126,        126,        1,   460800, ee60676687c0a54c648f37dc5ac62934
0,        127,        127,        1,   460800, 34c11e62e2f886fb3f86eabaf5bb8616
0,        128,        128,        1,   460800, fbf06b77ea70076417e7dae3f05559ad
0,        129,        129,        1,   460800, 0910773159fee4579b60665961f42dff
0,        130,        130,        1,   460800, 16e2bdddb02ed137c45779915e83f8ce
0,        131,        131,        1,   460800, 36c2a8b39e39e37dfd3acaf53166d32d
0,        132,        132,        1,   460800, 86a93fca2ea3b276d8b5d7922b051635
0,        133,        133,        1,   460800, 453eeba71c375f94cd2955a390e19aee
0,        134,        134,        1,   460800, 9b0661b42795d819909b6a10759f2ea8
0,        135,        135,        1,   460800, 982d156baa7facd8ff90dfc896705dba
0,        136,        136,        1,   460800, 4346140eb7859cf937813b320c2afd75
0,        137,        137,        1,   460800, cb19089d54d215ee5759fa95c995cb03
0,        138,        138,        1,   460800, 4372a47d5c86bd7f36af8b1708d89db1
0,        139,        139,        1,   460800, 63c1ccf9233c8ced848a536ca83fd2e2
0,        140,        140,        1,   460800, e05f15fe8811919b514aff6d712e050b
0,        141,        141,        1,   460800, 7a0787e04d549faeb60e6c53d036fc36
0,        142,        142,        1,   460800, a48da643d5807dc1b2c9e3768c14fa09
0,        143,        143,        1,   460800, 18e8af2af9a6d07d0319c216f32833bd
0,        144,        144,        1,   460800, 54a4abc6dc41181dc6c4ed12ff68d9b6
0,        145,        145,        1,   460800, 8c4bb205f07927c237134a2b43a1c75e
0,        146,        146,        1,   460800, c8fbebc0b9d1b0eef22ed22b339c29ad
0,        147,        147,        1,   460800, 0092360b69fd89eec83302f9c54e63c0
0,        148,        148,        1,   460800, 454f705a542986ee3df10a31571bac36
0,        149,        149,        1,   460800, 810de13c12e064d70ca6d1f1c175f0b6
